<svg xmlns="http://www.w3.org/2000/svg" width="174.488" height="94.332" viewBox="0 0 174.488 94.332">
    <g data-name="图层 2">
        <g data-name="图层 1-2">
            <path data-name="路径 349" d="M34.035 94.332a3.308 3.308 0 0 1-1.165-.209L2.262 83.041A3.391 3.391 0 0 1 .02 79.477l1.087-10.021a3.422 3.422 0 0 1 2.137-2.8l.522-4.1.1-.251.13-.345.2-.308a3.73 3.73 0 0 1 .3-.418 3.6 3.6 0 0 1 .475-.465l.183-.147.235-.141.22-.12.282-.151.4-.1 33.435-8.386.381-.177a3.424 3.424 0 0 1 2.012-2.362l3.067-1.27a3.361 3.361 0 0 1 2.435-.063l.178.058.522-.246a3.365 3.365 0 0 1 1.855-2.288l2.968-1.38a3.421 3.421 0 0 1 2.55-.125l.339.12.45-.214a3.4 3.4 0 0 1 1.844-2.325l2.869-1.38a3.417 3.417 0 0 1 2.612-.146l.491.167.523-.25a3.405 3.405 0 0 1 1.9-2.378l2.973-1.379a3.411 3.411 0 0 1 2.576-.115l.429.157.46-.22a3.37 3.37 0 0 1 2.032-2.471l3.078-1.28a3.426 3.426 0 0 1 1.922-.2l-4.7-28A3.425 3.425 0 0 1 76.62.822a3.388 3.388 0 0 1 2.232-.83 3.231 3.231 0 0 1 1.045.162l38.142 12.19 30.974-7.315h.522a3.119 3.119 0 0 1 .732.1 3.426 3.426 0 0 1 1.928 1.322l.193.235.23.564a3.431 3.431 0 0 1 .183 1.625l-.9 7.117a3.382 3.382 0 0 1 .758 1.128l.883 2.122a3.4 3.4 0 0 1-1.829 4.441l-.825.345-1.113 8.778 4.4 10.972a3.385 3.385 0 0 1 2.613 1.228l9.384 11.25a3.4 3.4 0 0 1 0 4.331l-2.759 3.349 10.685 22.792.194.36.068.376a1.509 1.509 0 0 0 .041.209l.084.33-.089 1.045-.141.318-.052.131-.089.261-.214.319a3.127 3.127 0 0 1-.423.522l-.189.23-.4.251-.491.324h-.068l-4 2.43a3.386 3.386 0 0 1-1.761.491z"/>
            <path data-name="路径 350" d="M171.285 88.362a.242.242 0 0 0 .031-.089v-.031a.2.2 0 0 0 0-.084.039.039 0 0 0 0-.026l-11.573-24.647 4.028-4.885a.265.265 0 0 0 0-.334l-9.368-11.281a.256.256 0 0 0-.266-.089l-1.881.486-5.7-14.175 1.442-11.386 2.5-1.045a.23.23 0 0 0 .141-.141.261.261 0 0 0 0-.2l-.888-2.148a.256.256 0 0 0-.332-.144h-.008l-1.008.418 1.28-10.11a.268.268 0 0 0 0-.126.227.227 0 0 0-.167-.146h-.125l-31.471 7.42L78.917 3.135a.269.269 0 0 0-.25.052.264.264 0 0 0-.089.24l5.188 30.927-2.612 1.228-1.521-.523a.252.252 0 0 0-.183 0l-3.077 1.275a.26.26 0 0 0 .01.486l1.239.444-4.781 2.263-1.651-.6a.264.264 0 0 0-.2 0l-2.968 1.38a.249.249 0 0 0-.151.245.255.255 0 0 0 .172.235l1.186.429-4.775 2.257-1.709-.6a.261.261 0 0 0-.2 0l-2.864 1.38a.245.245 0 0 0-.146.245.266.266 0 0 0 .172.235l1.166.408-4.7 2.21-1.567-.549a.282.282 0 0 0-.194 0l-2.973 1.38a.261.261 0 0 0-.151.251.265.265 0 0 0 .172.235l1.076.376-4.634 2.195-1.395-.523a.264.264 0 0 0-.188 0l-3.078 1.275a.262.262 0 0 0-.147.339.265.265 0 0 0 .147.147l1.1.4-3.548 1.672-.031.032-33.7 8.548h-.078a.212.212 0 0 0-.037.036l-.026.032v.047a.14.14 0 0 0 0 .041l-.946 6.772-1.384-.491a.261.261 0 0 0-.335.155.237.237 0 0 0-.015.064L3.154 79.807a.267.267 0 0 0 .172.277l30.619 11.087h132.622a.25.25 0 0 0 .136-.036l4.493-2.728a.277.277 0 0 0 .063-.073l.026.028z"/>
            <path data-name="路径 351" d="m749.5 1090.686 1.087-10.027 5.539 1.965.982 6.134 26.6 8.971 7.3-5.591 8.2 5.591h10.682l7.116-5.591 8.585 5.591h12.3l8.2-6.73 8.579 6.73h13.53l9.044-7.493 9.034 7.493h11.876l9.039-7.493 9.948 8.835-4.494 2.722-132.527-.021z" style="fill:#fff;stroke:#000;stroke-linecap:round;stroke-linejoin:round;stroke-width:.522px" transform="translate(-746.083 -1010.838)"/>
            <path data-name="路径 352" d="m816.635 1089.255 58.959-11.338 23.842 3.741 6.061-7.425 11.647 24.84-9.948-8.835-9.039 7.493h-11.878l-9.034-7.493-9.044 7.493h-13.523L846.1 1091l-8.2 6.73h-12.3l-8.585-5.591-7.116 5.591H799.2l-8.2-5.591-7.3 5.591-26.6-8.971z" style="fill:#fff;stroke:#000;stroke-linecap:round;stroke-linejoin:round;stroke-width:.522px" transform="translate(-746.083 -1010.838)"/>
            <path data-name="路径 353" d="m830.152 1045.354-5.22-31.12 39.041 12.477 31.538-7.435-3.135 24.8-42.793 8.151z" style="fill:#fff;stroke:#000;stroke-linecap:round;stroke-linejoin:round;stroke-width:.522px" transform="translate(-746.083 -1010.838)"/>
            <path data-name="路径 354" d="m756.125 1082.624 59.45-2.832 84.713-21.809 9.363 11.286-10.215 12.388-23.842-3.741-58.959 11.338-59.528-.5z" style="fill:#fff;stroke:#000;stroke-linecap:round;stroke-linejoin:round;stroke-width:.522px" transform="translate(-746.083 -1010.838)"/>
            <path data-name="路径 355" d="m815.575 1079.792-12.566-8.2 46.576-19.359 20.148 13.622z" style="fill:#fff;stroke:#000;stroke-linecap:round;stroke-linejoin:round;stroke-width:.522px" transform="translate(-746.083 -1010.838)"/>
            <path data-name="路径 356" d="m787.072 1065.7 43.08-20.346 19.432 6.876-46.576 19.359z" style="fill:#fff;stroke:#000;stroke-linecap:round;stroke-linejoin:round;stroke-width:.522px" transform="translate(-746.083 -1010.838)"/>
            <path data-name="矩形 103" transform="rotate(-22.6 166.933 -117.34)" style="fill:#fff;stroke:#000;stroke-linecap:round;stroke-linejoin:round;stroke-width:.522px" d="M0 0h6.145v4.791H0z"/>
            <path data-name="矩形 104" transform="rotate(-22.6 162.072 -141.642)" style="fill:#fff;stroke:#000;stroke-linecap:round;stroke-linejoin:round;stroke-width:.522px" d="M0 0h6.145v4.791H0z"/>
            <path data-name="矩形 105" transform="rotate(-22.6 157.227 -165.94)" style="fill:#fff;stroke:#000;stroke-linecap:round;stroke-linejoin:round;stroke-width:.522px" d="M0 0h6.145v4.791H0z"/>
            <path data-name="矩形 106" transform="rotate(-22.6 152.53 -190.086)" style="fill:#fff;stroke:#000;stroke-linecap:round;stroke-linejoin:round;stroke-width:.522px" d="M0 0h6.145v4.791H0z"/>
            <path data-name="矩形 107" transform="rotate(-22.6 147.557 -214.294)" style="fill:#fff;stroke:#000;stroke-linecap:round;stroke-linejoin:round;stroke-width:.522px" d="M0 0h6.145v4.791H0z"/>
            <path data-name="路径 357" d="m812.962 1062.241 1.2 2.89-16.462-5.831 2.973-1.379z" style="fill:#fff;stroke:#000;stroke-linecap:round;stroke-linejoin:round;stroke-width:.522px" transform="translate(-746.083 -1010.838)"/>
            <path data-name="路径 358" d="m821.9 1058.521 1.2 2.889-17.2-6.056 2.869-1.379z" style="fill:#fff;stroke:#000;stroke-linecap:round;stroke-linejoin:round;stroke-width:.522px" transform="translate(-746.083 -1010.838)"/>
            <path data-name="路径 359" d="m830.915 1054.942 1.2 2.884-17.88-6.437 2.968-1.379z" style="fill:#fff;stroke:#000;stroke-linecap:round;stroke-linejoin:round;stroke-width:.522px" transform="translate(-746.083 -1010.838)"/>
            <path data-name="路径 360" d="m839.777 1051.175 1.2 2.889-18.4-6.657 3.078-1.275z" style="fill:#fff;stroke:#000;stroke-linecap:round;stroke-linejoin:round;stroke-width:.522px" transform="translate(-746.083 -1010.838)"/>
            <path data-name="路径 361" d="M895.512 1019.276 844.2 1031.45l5.387 20.78 42.793-8.151z" style="fill:#fff;stroke:#000;stroke-linecap:round;stroke-linejoin:round;stroke-width:.522px" transform="translate(-746.083 -1010.838)"/>
            <path data-name="路径 362" d="m804.027 1065.935 1.2 2.884-15.732-5.68 3.072-1.275z" style="fill:#fff;stroke:#000;stroke-linecap:round;stroke-linejoin:round;stroke-width:.522px" transform="translate(-746.083 -1010.838)"/>
            <path data-name="矩形 108" transform="rotate(-22.6 147.73 -230.294)" style="fill:#fff;stroke:#000;stroke-linecap:round;stroke-linejoin:round;stroke-width:.522px" d="M0 0h53.807v2.309H0z"/>
            <path data-name="路径 363" d="m827.315 1076.714-5.925 1.526-13.141-8.8 5.194-2.153z" style="fill:#fff;stroke:#000;stroke-linecap:round;stroke-linejoin:round;stroke-width:.522px" transform="translate(-746.083 -1010.838)"/>
            <path data-name="路径 364" d="m839.38 1073.616-5.925 1.521-14.949-10.016 5.262-2.189z" style="fill:#fff;stroke:#000;stroke-linecap:round;stroke-linejoin:round;stroke-width:.522px" transform="translate(-746.083 -1010.838)"/>
            <path data-name="路径 365" d="m851.444 1070.518-5.925 1.52-16.72-11.2 5.094-2.085z" style="fill:#fff;stroke:#000;stroke-linecap:round;stroke-linejoin:round;stroke-width:.522px" transform="translate(-746.083 -1010.838)"/>
            <path data-name="路径 366" d="m863.509 1067.414-5.925 1.52-18.45-12.362 5.021-2.127z" style="fill:#fff;stroke:#000;stroke-linecap:round;stroke-linejoin:round;stroke-width:.522px" transform="translate(-746.083 -1010.838)"/>
            <path data-name="路径 367" d="m752.279 1081.26.93-7.028 49.8-2.644 12.566 8.2-59.45 2.832z" style="fill:#fff;stroke:#000;stroke-linecap:round;stroke-linejoin:round;stroke-width:.522px" transform="translate(-746.083 -1010.838)"/>
            <path data-name="路径 368" d="m753.209 1074.233 33.968-8.532 15.832 5.889z" style="fill:#fff;stroke:#000;stroke-linecap:round;stroke-linejoin:round;stroke-width:.522px" transform="translate(-746.083 -1010.838)"/>
            <path data-name="路径 369" d="m892.377 1044.079-22.645 21.773 28.424-7.383z" style="fill:#fff;stroke:#000;stroke-linecap:round;stroke-linejoin:round;stroke-width:.522px" transform="translate(-746.083 -1010.838)"/>
            <path data-name="路径 370" d="m849.584 1052.23 42.793-8.151-22.645 21.773z" style="fill:#fff;stroke:#000;stroke-linecap:round;stroke-linejoin:round;stroke-width:.522px" transform="translate(-746.083 -1010.838)"/>
            <path data-name="路径 371" d="m827.211 1027.15 11.208 3.01 5.1 7.414-3.067 5.167-11.166-3.14z" style="fill:#fff;stroke:#000;stroke-linecap:round;stroke-linejoin:round;stroke-width:.522px" transform="translate(-746.083 -1010.838)"/>
            <path data-name="矩形 109" d="m154.905 48.141 7.084-5.89 7.91 9.515-7.084 5.89z"/>
            <path data-name="路径 372" d="m905.345 1056.389 1.839 7.268 1.8-1.661 2.675 3.245-2-6.9-1.761 1.6z" style="fill:#56ff8b;fill-rule:evenodd" transform="translate(-746.083 -1010.838)"/>
        </g>
    </g>
</svg>
