<svg xmlns="http://www.w3.org/2000/svg" width="181.276" height="92.514" viewBox="0 0 181.276 92.514">
    <g data-name="图层 2">
        <g data-name="图层 1-2">
            <path data-name="路径 373" d="M23.516 92.514a3.4 3.4 0 0 1-1.264-.246L2.136 84.185a3.407 3.407 0 0 1-2.09-3.715l2.842-16.824.188-.34a2.594 2.594 0 0 1 .12-.235l.084-.141.183-.329.386-.361 3.658-3.36.031-.031.622-.235 24.035-8.574L58.67 39.527a3.381 3.381 0 0 1 1.944-3.2l2.612-1.233 1.954-2.576a3.412 3.412 0 0 1 2.226-1.311l1.887-1.933a3.363 3.363 0 0 1 1.567-3.172l2.529-1.614 1.635-2.467a3.387 3.387 0 0 1 2.252-1.473l.267-.047h.313L96.849 1.043a3.349 3.349 0 0 1 1.907-1 3.515 3.515 0 0 1 .523-.042h.433l.471.125a3.034 3.034 0 0 1 .825.366 3.3 3.3 0 0 1 .732.554l.392.413.183.418a3.168 3.168 0 0 1 .235.58l.12.412v.11l4.619 20.252 20.7 8.7 7.613-1.959 3.433-7.106a3.427 3.427 0 0 1 3.061-1.923l6.4.115a3.394 3.394 0 0 1 3.229 2.555l1.688 6.693 16.824-9.614a3.4 3.4 0 0 1 3.919 5.507l-18.1 15.785 4.269 16.2 2.325-.3h.241a3.4 3.4 0 0 1 1.264.246 3.347 3.347 0 0 1 1.374 1.013l5.157 6.333a3.4 3.4 0 0 1 .664 2.978l-1.379 5.476 10.45 11.647a3.4 3.4 0 0 1-2.508 5.658z"/>
            <path data-name="路径 374" d="m178.051 87.655-11.532-12.891 1.782-7.09a.262.262 0 0 0-.052-.23l-5.163-6.312a.206.206 0 0 0-.235-.078h-.062l-4.8.6-5.465-20.754 19.567-17.091a.267.267 0 0 0 .042-.35.262.262 0 0 0-.345-.073l-20.377 11.662-2.7-10.659a.268.268 0 0 0-.251-.2l-6.338-.1a.252.252 0 0 0-.241.146l-4.065 8.413-10.047 2.612-23.184-9.755-5.047-22.159a.082.082 0 0 0-.026-.058c-.026-.02 0-.047-.037-.062a.258.258 0 0 0-.062-.037.154.154 0 0 0-.058-.036.255.255 0 0 0-.11 0 .311.311 0 0 0-.146.068L78.654 24.178l-.643-.486a.262.262 0 0 0-.2-.052.275.275 0 0 0-.172.115l-2 3.02-3.088 1.964a.262.262 0 0 0-.089.351l.522.888-4.53 4.676-.334-.287a.262.262 0 0 0-.193-.063.271.271 0 0 0-.183.1l-2.2 2.905a.232.232 0 0 0-.047.2l-3.459 1.646a.262.262 0 0 0-.131.34l.57 1.3-1 1.008-28.1 11.166L9.3 61.553a.111.111 0 0 0-.036 0 .064.064 0 0 0-.052.027l-3.219 2.946-.031.047a.2.2 0 0 0-.027.058L3.156 80.99a.261.261 0 0 0 .157.288l20.131 8.072a.3.3 0 0 0 .1 0l154.33-1.29a.259.259 0 0 0 .235-.157.254.254 0 0 0-.058-.248z"/>
            <path data-name="路径 375" d="m972.479 1075.321-4.624-2.769-2.748 16.292 20.127 8.083 154.326-1.291-11.62-12.989 1.813-7.226-5.162-6.343-138.9 18.282-13.366-4.384z" style="fill:#fff;stroke:#000;stroke-linecap:round;stroke-linejoin:round;stroke-width:.522px" transform="translate(-961.707 -1007.809)"/>
            <path data-name="路径 376" d="m967.855 1072.552 3.224-2.947 36.188 14.86-21.579 2.895-13.366-4.384.157-7.655z" style="fill:#fff;stroke:#000;stroke-linecap:round;stroke-linejoin:round;stroke-width:.522px" transform="translate(-961.707 -1007.809)"/>
            <path data-name="路径 377" d="m971.079 1069.6 24.082-8.585 5.873 2.56-19.056 6.881 3.767 5.157z" style="fill:#fff;stroke:#000;stroke-linecap:round;stroke-linejoin:round;stroke-width:.522px" transform="translate(-961.707 -1007.809)"/>
            <path data-name="路径 378" d="m990.5 1067.379 14.348 5.324 26.078-5.821 37.411-26.2 21.778 9.159 22.818-6.521-2.79-11.056-6.343-.11-4.117 8.527-10.251 2.639-23.361-9.818-37.228 27.452-23.889 5.93-6.594-2.372z" style="fill:#fff;stroke:#000;stroke-linecap:round;stroke-linejoin:round;stroke-width:.522px" transform="translate(-961.707 -1007.809)"/>
            <path data-name="路径 379" d="m995.161 1061.02 28.158-11.182 37.672-38.639 5.079 22.3-37.228 27.452-23.889 6.035-6.594-2.477 2.675-.93z" style="fill:#fff;stroke:#000;stroke-linecap:round;stroke-linejoin:round;stroke-width:.522px" transform="translate(-961.707 -1007.809)"/>
            <path data-name="路径 380" d="m1001.034 1063.581 26.115-9.327 35.614-35.122-1.771-7.932-37.672 38.639-28.158 11.182z" style="fill:#fff;stroke:#000;stroke-linecap:round;stroke-linejoin:round;stroke-width:.522px" transform="translate(-961.707 -1007.809)"/>
            <path data-name="路径 381" d="m1050.74 1078.8 82.884-47.375-38.8 33.895 24.672 4.431z" style="fill:#fff;stroke:#000;stroke-linecap:round;stroke-linejoin:round;stroke-width:.522px" transform="translate(-961.707 -1007.809)"/>
            <path data-name="路径 382" d="m1113.936 1048.621-19.108 16.694 24.672 4.431z" style="fill:#fff;stroke:#000;stroke-linecap:round;stroke-linejoin:round;stroke-width:.522px" transform="translate(-961.707 -1007.809)"/>
            <path data-name="路径 383" d="m1026.752 1081.852 33.477-23.46-9.489 20.4z" style="fill:#fff;stroke:#000;stroke-linecap:round;stroke-linejoin:round;stroke-width:.522px" transform="translate(-961.707 -1007.809)"/>
            <path data-name="路径 384" d="m990.5 1067.379 14.348 5.324 26.078-5.821-4.175 14.97-19.484 2.613-21.522-8.846-3.767-5.157z" style="fill:#fff;stroke:#000;stroke-linecap:round;stroke-linejoin:round;stroke-width:.522px" transform="translate(-961.707 -1007.809)"/>
            <path data-name="路径 385" d="m1112.933 1043.318-52.7 15.074-9.489 20.4z" style="fill:#fff;stroke:#000;stroke-linecap:round;stroke-linejoin:round;stroke-width:.522px" transform="translate(-961.707 -1007.809)"/>
            <path data-name="路径 386" d="m1068.337 1040.679-37.411 26.2 59.189-17.044z" style="fill:#fff;stroke:#000;stroke-linecap:round;stroke-linejoin:round;stroke-width:.522px" transform="translate(-961.707 -1007.809)"/>
            <path data-name="路径 387" d="m1060.228 1058.392-29.3 8.491-4.175 14.97z" style="fill:#fff;stroke:#000;stroke-linecap:round;stroke-linejoin:round;stroke-width:.522px" transform="translate(-961.707 -1007.809)"/>
            <path data-name="路径 388" d="m1039.814 1080.191 4.258 5.235 83.866-2.78 1.813-7.226-5.162-6.343z" style="fill:#fff;stroke:#000;stroke-linecap:round;stroke-linejoin:round;stroke-width:.522px" transform="translate(-961.707 -1007.809)"/>
            <path data-name="路径 389" d="m1035.127 1063.925-3.031 2.106-8.266-18.831 3.558-1.688z" style="fill:#fff;stroke:#000;stroke-linecap:round;stroke-linejoin:round;stroke-width:.522px" transform="translate(-961.707 -1007.809)"/>
            <path data-name="路径 390" d="m1043.08 1058.35 2.837-2.059-16.276-13.919-2.21 2.905z" style="fill:#fff;stroke:#000;stroke-linecap:round;stroke-linejoin:round;stroke-width:.522px" transform="translate(-961.707 -1007.809)"/>
            <path data-name="路径 391" d="m1048.994 1054.249-3.031 2.106-11.573-19.578 3.14-2z" style="fill:#fff;stroke:#000;stroke-linecap:round;stroke-linejoin:round;stroke-width:.522px" transform="translate(-961.707 -1007.809)"/>
            <path data-name="路径 392" d="m1059.554 1046.808-3.239 2.315-18.784-14.348 2.032-3.067z" style="fill:#fff;stroke:#000;stroke-linecap:round;stroke-linejoin:round;stroke-width:.522px" transform="translate(-961.707 -1007.809)"/>
            <path data-name="路径 393" d="m1039.814 1080.191 4.258 5.235-58.384 1.933z" style="fill:#fff;stroke:#000;stroke-linecap:round;stroke-linejoin:round;stroke-width:.522px" transform="translate(-961.707 -1007.809)"/>
            <path data-name="路径 394" d="m1119.5 1069.746 4.739 5.711-1.4 7.362-5.424.146 1.322-6.766-4.373-5.737z" style="fill:#fff;stroke:#000;stroke-linecap:round;stroke-linejoin:round;stroke-width:.522px" transform="translate(-961.707 -1007.809)"/>
            <path data-name="路径 395" d="m1108.711 1071.178 4.347 5.591-1.066 6.443-5.883.178 1.16-5.742-4.232-5.768z" style="fill:#fff;stroke:#000;stroke-linecap:round;stroke-linejoin:round;stroke-width:.522px" transform="translate(-961.707 -1007.809)"/>
            <path data-name="路径 396" d="m1097.665 1072.677 4.034 5.178-1.306 5.727-5.753.188 1.322-5.241-3.987-5.079z" style="fill:#fff;stroke:#000;stroke-linecap:round;stroke-linejoin:round;stroke-width:.522px" transform="translate(-961.707 -1007.809)"/>
            <path data-name="路径 397" d="m1086.16 1074.151 4.034 5.173-1.123 4.635-5.753.188 1.139-4.143-3.992-5.084z" style="fill:#fff;stroke:#000;stroke-linecap:round;stroke-linejoin:round;stroke-width:.522px" transform="translate(-961.707 -1007.809)"/>
            <path data-name="路径 398" d="m1074.8 1075.671 4.034 5.178-.941 3.511-5.753.193.956-3.031-3.987-5.084z" style="fill:#fff;stroke:#000;stroke-linecap:round;stroke-linejoin:round;stroke-width:.522px" transform="translate(-961.707 -1007.809)"/>
            <path data-name="路径 399" d="m1063.28 1077.108 4.034 5.173-.946 2.4-5.753.193.961-1.912-3.987-5.084z" style="fill:#fff;stroke:#000;stroke-linecap:round;stroke-linejoin:round;stroke-width:.522px" transform="translate(-961.707 -1007.809)"/>
            <path data-name="路径 400" d="m1051.591 1078.676 4.034 5.173-.35 1.207-5.753.188.366-.716-3.987-5.084z" style="fill:#fff;stroke:#000;stroke-linecap:round;stroke-linejoin:round;stroke-width:.522px" transform="translate(-961.707 -1007.809)"/>
            <path data-name="矩形 110" d="m153.567 43.978 8.908-2.34 3.143 11.965-8.908 2.34z"/>
            <path data-name="路径 401" d="m1120.305 1051.291-1.411 7.362 2.341-.747 1.045 4.07 1.108-7.09-2.273.705z" style="fill:#56ff8b;fill-rule:evenodd" transform="translate(-961.707 -1007.809)"/>
        </g>
    </g>
</svg>
