<svg xmlns="http://www.w3.org/2000/svg" width="174.512" height="99.077" viewBox="0 0 174.512 99.077">
    <g data-name="图层 2">
        <g data-name="图层 1-2">
            <path data-name="路径 402" d="M33.892 99.077a3.263 3.263 0 0 1-.977-.146l-30.473-9.06a3.392 3.392 0 0 1-1.949-5.016l6.438-10.842.151-.3.084-.094 7.226-11.741.392-.24a3.726 3.726 0 0 1 .705-.428l.2-.079.136-.042a3.077 3.077 0 0 1 .569-.135l50.845-7.524 14.468-14.244 3.474-3.412a3.391 3.391 0 0 1-1.233-3.234l1.8-10.393a3.412 3.412 0 0 1 1.4-2.2 2.19 2.19 0 0 0 1.954-1.845L84.246 4.541A3.4 3.4 0 0 1 88.468.157L155.4 21.423a3.382 3.382 0 0 1 2.242 4.18l-.941 3.344a3.423 3.423 0 0 1 .81 2.832l-2.775 16.015 1.4 6.113h.721l.444.219.245.1c.1.047.194.1.283.151l.449.23.439.523a3.386 3.386 0 0 1 .308.454 2.914 2.914 0 0 1 .2.429l14.912 37.212.361.737-.063.523.073.4-.245.742a3.274 3.274 0 0 1-.418.841 3.085 3.085 0 0 1-.523.617l-.057.062-.716.575-.455.089a3.531 3.531 0 0 1-1.019.178l-55.8.841-.287-.047a3.276 3.276 0 0 1-.737-.214 3.433 3.433 0 0 1-.8-.471 2.2 2.2 0 0 1-.209-.177l-.319-.256-.3-.5a3.325 3.325 0 0 1-.246-.522 3.6 3.6 0 0 1-.177-.612l-1.761-8.882-11.328 10.319a3.382 3.382 0 0 1-2.247.883l-62.961.664z"/>
            <path data-name="路径 403" d="M171.283 94.697a.231.231 0 0 0 0-.083.21.21 0 0 0 0-.079l-14.954-37.332v-.068h-.031l-.058-.042h-.146a.1.1 0 0 0-.042 0l-2.215.643-2.3-9.86 2.879-16.636a.261.261 0 0 0-.209-.3l-1.265-.215 1.677-5.966a.261.261 0 0 0-.172-.324L87.52 3.143a.272.272 0 0 0-.266.068.261.261 0 0 0-.058.271l6.045 16.9-1.567-.272a.261.261 0 0 0-.3.209l-.444 2.467-1.8-.314a.245.245 0 0 0-.2.042.271.271 0 0 0-.1.167l-1.8 10.387a.256.256 0 0 0 .2.3h.013l1.8.313-.56 3.234-4.577 4.5-15.2 14.954-51.853 7.675h-.047a.26.26 0 0 0-.105.095L9.679 75.524 3.19 86.455a.25.25 0 0 0 0 .229.274.274 0 0 0 .167.157l30.461 9.092h.074l62.945-.664a.264.264 0 0 0 .173-.068l15.434-14.055 2.848 14.358v.084h.031l.042.042a.266.266 0 0 0 .078.041h.079l55.484-.836a.332.332 0 0 0 .157-.057c.026 0 .031-.042.047-.063s.029-.041.042-.062z"/>
            <path data-name="矩形 111" transform="rotate(-80.18 66.37 -34.18)" style="stroke-width:.522px;fill:#fff;stroke:#000;stroke-linecap:round;stroke-linejoin:round" d="M0 0h16.934v63.473H0z"/>
            <path data-name="路径 404" d="m1279.394 1024.416-6.2-17.316 66.927 21.281-1.756 6.244z" style="fill-rule:evenodd;stroke-width:.522px;fill:#fff;stroke:#000;stroke-linecap:round;stroke-linejoin:round" transform="translate(-1185.754 -1003.703)"/>
            <path data-name="矩形 112" transform="rotate(-80.256 63.565 -35.419)" style="stroke-width:.525px;fill:#fff;stroke:#000;stroke-linecap:round;stroke-linejoin:round" d="M0 0h10.591v16.443H0z"/>
            <path data-name="路径 405" d="m1290.967 1029.223 2.409 6.051-4.206 4.337z" style="fill-rule:evenodd;stroke-width:.522px;fill:#fff;stroke:#000;stroke-linecap:round;stroke-linejoin:round" transform="translate(-1185.754 -1003.703)"/>
            <path data-name="路径 406" d="m1337.025 1051.58 2.3 10.074-42.981 12.545z" style="fill-rule:evenodd;stroke-width:.522px;fill:#fff;stroke:#000;stroke-linecap:round;stroke-linejoin:round" transform="translate(-1185.754 -1003.703)"/>
            <path data-name="路径 407" d="m1322.458 1049.057 14.567 2.524-40.677 22.619z" style="fill-rule:evenodd;stroke-width:.522px;fill:#fff;stroke:#000;stroke-linecap:round;stroke-linejoin:round" transform="translate(-1185.754 -1003.703)"/>
            <path data-name="路径 408" d="m1297.89 1044.8-7.258 4.253-20.79-3.746 4.64-4.561z" style="fill-rule:evenodd;stroke-width:.522px;fill:#fff;stroke:#000;stroke-linecap:round;stroke-linejoin:round" transform="translate(-1185.754 -1003.703)"/>
            <path data-name="路径 409" d="m1269.842 1045.31-15.257 15.011 10.9 3.684 25.148-14.949z" style="fill-rule:evenodd;stroke-width:.522px;fill:#fff;stroke:#000;stroke-linecap:round;stroke-linejoin:round" transform="translate(-1185.754 -1003.703)"/>
            <path data-name="路径 410" d="m1265.485 1064.005 56.973-14.949-24.568-4.253z" style="fill-rule:evenodd;stroke-width:.522px;fill:#fff;stroke:#000;stroke-linecap:round;stroke-linejoin:round" transform="translate(-1185.754 -1003.703)"/>
            <path data-name="路径 411" d="m1265.485 1064.005 30.864 10.194 26.109-25.143z" style="fill-rule:evenodd;stroke-width:.522px;fill:#fff;stroke:#000;stroke-linecap:round;stroke-linejoin:round" transform="translate(-1185.754 -1003.703)"/>
            <path data-name="路径 412" d="m1254.585 1060.322-51.942 7.678 18.387 4.4 44.454-8.4z" style="fill-rule:evenodd;stroke-width:.522px;fill:#fff;stroke:#000;stroke-linecap:round;stroke-linejoin:round" transform="translate(-1185.754 -1003.703)"/>
            <path data-name="路径 413" d="m1202.643 1068-6.991 11.359 21.292 5.936 4.086-12.89z" style="fill-rule:evenodd;stroke-width:.522px;fill:#fff;stroke:#000;stroke-linecap:round;stroke-linejoin:round" transform="translate(-1185.754 -1003.703)"/>
            <path data-name="路径 414" d="m1216.944 1085.3 79.4-11.1-30.864-10.194-44.454 8.4z" style="stroke-width:.522px;fill:#fff;stroke:#000;stroke-linecap:round;stroke-linejoin:round" transform="translate(-1185.754 -1003.703)"/>
            <path data-name="路径 415" d="m1265.485 1064.005-1.7 14.745 32.567-4.551z" style="stroke-width:.522px;fill:#fff;stroke:#000;stroke-linecap:round;stroke-linejoin:round" transform="translate(-1185.754 -1003.703)"/>
            <path data-name="路径 416" d="m1223.575 1071.9-3.584 12.948 4.264-.554 3.48-13.151z" style="fill-rule:evenodd;stroke-width:.522px;fill:#fff;stroke:#000;stroke-linecap:round;stroke-linejoin:round" transform="translate(-1185.754 -1003.703)"/>
            <path data-name="路径 417" d="m1230.566 1070.6-3.182 13.282 4.264-.554 3.083-13.486z" style="fill-rule:evenodd;stroke-width:.522px;fill:#fff;stroke:#000;stroke-linecap:round;stroke-linejoin:round" transform="translate(-1185.754 -1003.703)"/>
            <path data-name="路径 418" d="m1237.672 1069.293-2.884 13.548 4.17-.606 2.879-13.742z" style="fill-rule:evenodd;stroke-width:.522px;fill:#fff;stroke:#000;stroke-linecap:round;stroke-linejoin:round" transform="translate(-1185.754 -1003.703)"/>
            <path data-name="路径 419" d="m1245.044 1067.835-2.759 13.925 4.17-.507 2.759-14.223z" style="fill-rule:evenodd;stroke-width:.522px;fill:#fff;stroke:#000;stroke-linecap:round;stroke-linejoin:round" transform="translate(-1185.754 -1003.703)"/>
            <path data-name="路径 420" d="m1252.286 1066.55-2.6 14.2 4.264-.6 2.5-14.4z" style="fill-rule:evenodd;stroke-width:.522px;fill:#fff;stroke:#000;stroke-linecap:round;stroke-linejoin:round" transform="translate(-1185.754 -1003.703)"/>
            <path data-name="路径 421" d="m1259.068 1065.228-2.059 14.416 4.264-.554 1.959-14.661z" style="fill-rule:evenodd;stroke-width:.522px;fill:#fff;stroke:#000;stroke-linecap:round;stroke-linejoin:round" transform="translate(-1185.754 -1003.703)"/>
            <path data-name="路径 422" d="m1296.349 1074.2 13.245 10.419 21.9-3.2 10.33-20.424z" style="fill-rule:evenodd;stroke-width:.522px;fill:#fff;stroke:#000;stroke-linecap:round;stroke-linejoin:round" transform="translate(-1185.754 -1003.703)"/>
            <path data-name="路径 423" d="m1309.594 1084.618-8.292 14.546 55.484-.836-25.286-16.908z" style="fill-rule:evenodd;stroke-width:.522px;fill:#fff;stroke:#000;stroke-linecap:round;stroke-linejoin:round" transform="translate(-1185.754 -1003.703)"/>
            <path data-name="路径 424" d="m1224.254 1084.289-7.31 1.008 2.7 14.087 62.946-.664 15.774-14.369-2.017-10.152z" style="fill-rule:evenodd;stroke-width:.522px;fill:#fff;stroke:#000;stroke-linecap:round;stroke-linejoin:round" transform="translate(-1185.754 -1003.703)"/>
            <path data-name="路径 425" d="m1296.349 1074.2 4.953 24.965 8.292-14.546z" style="fill-rule:evenodd;stroke-width:.522px;fill:#fff;stroke:#000;stroke-linecap:round;stroke-linejoin:round" transform="translate(-1185.754 -1003.703)"/>
            <path data-name="路径 426" d="m1331.5 1081.42 25.289 16.908-14.962-37.328z" style="fill-rule:evenodd;stroke-width:.522px;fill:#fff;stroke:#000;stroke-linecap:round;stroke-linejoin:round" transform="translate(-1185.754 -1003.703)"/>
            <path data-name="路径 427" d="m1216.944 1085.3 2.7 14.087-30.483-9.092 6.49-10.931z" style="fill-rule:evenodd;stroke-width:.522px;fill:#fff;stroke:#000;stroke-linecap:round;stroke-linejoin:round" transform="translate(-1185.754 -1003.703)"/>
            <path data-name="路径 428" d="m1224.254 1084.289 2.91 10.952 26.783-15.1z" style="fill-rule:evenodd;stroke-width:.522px;fill:#fff;stroke:#000;stroke-linecap:round;stroke-linejoin:round" transform="translate(-1185.754 -1003.703)"/>
            <path data-name="路径 429" d="m1227.164 1095.24 45.175-1.087-18.392-14.008z" style="fill-rule:evenodd;stroke-width:.522px;fill:#fff;stroke:#000;stroke-linecap:round;stroke-linejoin:round" transform="translate(-1185.754 -1003.703)"/>
            <path data-name="路径 430" d="m1272.34 1094.154 11.317-18.178-29.709 4.17z" style="fill-rule:evenodd;stroke-width:.522px;fill:#fff;stroke:#000;stroke-linecap:round;stroke-linejoin:round" transform="translate(-1185.754 -1003.703)"/>
            <path data-name="矩形 113" d="m157.451 58.564 8.587-3.334 4.479 11.534-8.588 3.334z"/>
            <path data-name="路径 431" d="m1348.144 1061.2-.564 7.472 2.236-1 1.5 3.924.293-7.169-2.174.961z" style="fill:#56ff8b;fill-rule:evenodd" transform="translate(-1185.754 -1003.703)"/>
        </g>
    </g>
</svg>
